<svg xmlns="http://www.w3.org/2000/svg" viewBox="0 0 100 100"><path d="M87.58 27.77A31.37 31.37 0 0179.92 30c1.23-.21 3-2.44 3.77-3.35A14.1 14.1 0 0086.23 22c.07-.13.12-.29 0-.39a.4.4 0 00-.4 0 39.42 39.42 0 01-9.09 3.48.62.62 0 01-.63-.17 6.76 6.76 0 00-.79-.81 16.09 16.09 0 00-4.4-2.7 15.43 15.43 0 00-6.75-1.09 16.29 16.29 0 00-6.41 1.81 16.61 16.61 0 00-5.17 4.22 15.89 15.89 0 00-3.08 6.19 16.83 16.83 0 00-.17 6.52c0 .37 0 .41-.31.37-12.48-1.86-22.83-6.33-31.22-15.9-.37-.41-.57-.41-.87 0-3.67 5.51-1.89 14.36 2.7 18.71.62.58 1.24 1.16 1.92 1.69a15.92 15.92 0 01-6-1.69c-.37-.23-.55-.1-.58.32a8.49 8.49 0 00.1 1.79 16 16 0 009.82 12.79 9.33 9.33 0 002 .61 17.47 17.47 0 01-5.91.18c-.43-.08-.6.14-.43.55 2.6 7.09 8.21 9.2 12.41 10.4.57.1 1.13.1 1.69.23 0 0-.07 0-.1.1-1.39 2.12-6.22 3.71-8.48 4.49a30.3 30.3 0 01-12.87 1.65c-.7-.1-.84-.09-1 0s0 .28.2.46c.88.58 1.77 1.1 2.68 1.59a42.44 42.44 0 008.61 3.45C39.15 85.12 56.58 82 68.19 70.44c9.12-9.06 12.32-21.56 12.32-34.08 0-.49.58-.76.92-1A29.69 29.69 0 0087.49 29a1.88 1.88 0 00.4-1.2v-.07c0-.16 0-.1-.31.04z" fill="#e082a8"/></svg>