<svg xmlns="http://www.w3.org/2000/svg" viewBox="0 0 100 100"><defs><style>.cls-1{fill:#e082a8}</style></defs><g id="ELEMENTS"><path class="cls-1" d="M70 27.25a4.42 4.42 0 104.42 4.42A4.41 4.41 0 0070 27.25zm-19.69 5.67a18.56 18.56 0 1018.56 18.56 18.58 18.58 0 00-18.56-18.56zm0 30.45A11.89 11.89 0 1162.2 51.48a11.9 11.9 0 01-11.89 11.89z"/><path class="cls-1" d="M65.05 89.17H35a22.67 22.67 0 01-22.69-22.64v-30.1A22.67 22.67 0 0135 13.79h30.1a22.67 22.67 0 0122.59 22.64v30.1a22.67 22.67 0 01-22.64 22.64zM35 20.89a15.56 15.56 0 00-15.6 15.54v30.1A15.57 15.57 0 0035 82.08h30.1a15.57 15.57 0 0015.5-15.55v-30.1a15.56 15.56 0 00-15.55-15.54z"/></g></svg>