<svg xmlns="http://www.w3.org/2000/svg" width="395" height="229"><g fill="#E182A8"><path d="M87.265 104.673c1.764-2.904 2.646-6.174 2.646-9.808 0-3.632-.571-6.485-1.713-8.562-1.973-3.32-5.814-4.981-11.52-4.981-10.586 0-20.914 4.256-30.979 12.765-7.371 6.538-13.415 14.349-18.137 23.43-4.723 9.082-7.083 17.178-7.083 24.284 0 7.11 1.635 12.454 4.904 16.035 3.27 3.58 7.445 5.736 12.532 6.46 2.697.414 5.344.623 7.939.623 7.885 0 15.358-1.4 22.417-4.204 11.311-4.359 20.393-10.793 27.243-19.304 1.035-1.245 1.556-1.245 1.556 0 0 .728-.416 1.661-1.245 2.803-6.538 8.718-15.309 15.36-26.308 19.925-7.784 3.215-16.035 4.826-24.752 4.826-14.116 0-23.872-3.736-29.268-11.208-2.802-3.839-4.203-8.614-4.203-14.322 0-9.754 2.699-19.276 8.096-28.565 5.396-9.288 12.35-17.149 20.86-23.586 10.897-8.197 22.674-12.298 35.338-12.298 5.706 0 10.664 1.012 14.867 3.036 4.204 2.023 6.306 4.698 6.306 8.017 0 1.455-.962 3.764-2.881 6.929-1.922 3.165-3.139 5.474-3.657 6.928-.21.727-.988 1.143-2.336 1.245-.416-.102-.622-.259-.622-.468z"/><path d="M141.438 141.413c.208.21.312.622.312 1.245s-.728 1.923-2.179 3.893c-9.238 12.246-17.801 18.37-25.686 18.37-2.491 0-3.737-.986-3.737-2.959 0-3.631 2.024-8.613 6.072-14.945-3.635 3.842-7.784 7.76-12.455 11.754-4.669 3.996-9.029 5.994-13.077 5.994-1.867 0-2.801-1.141-2.801-3.426 0-.518.05-.879.156-1.089.725-5.915 3.112-12.142 7.16-18.68 8.095-13.077 16.501-19.615 25.22-19.615h17.902c.518 0 .778.209.778.622 0 .832-.466 1.245-1.401 1.245-1.454 0-3.269 1.689-5.449 5.06-2.179 3.374-5.059 8.562-8.639 15.568-3.582 7.006-5.372 11.416-5.372 13.232s.724 2.724 2.18 2.724c2.385 0 5.706-2.075 9.962-6.227 2.282-2.388 3.995-4.255 5.137-5.605a280.275 280.275 0 012.258-2.646c.364-.414 1.582-1.921 3.659-4.515zm-16.657-14.478c0-1.97-1.322-2.958-3.969-2.958-2.646 0-5.581 1.506-8.796 4.515-3.218 3.012-6.721 7.861-10.508 14.556-3.791 6.694-5.682 11.546-5.682 14.555 0 1.246.413 1.869 1.245 1.869 3.009 0 8.379-4.593 16.112-13.777 7.73-9.186 11.598-15.438 11.598-18.76z"/><path d="M178.955 133.629c0-4.772-1.479-7.162-4.437-7.162s-7.162 3.141-12.61 9.419c-5.448 6.28-9.574 12.998-12.376 20.159l-3.269 8.718c-.623 0-1.869.312-3.736.934-1.869.625-2.855.934-2.958.934-.521 0-.544-.465-.077-1.4.467-.934 1.347-2.957 2.646-6.071a605.432 605.432 0 004.747-11.832c3.632-9.13 6.072-15.15 7.318-18.058-5.502 5.916-10.484 11.831-14.946 17.746-.727 1.039-1.089.936-1.089-.31 0-.831.258-1.558.779-2.182 7.367-9.13 13.022-16.551 16.968-22.26 5.189-.726 8.198-1.453 9.03-2.18.829-.726 1.347-1.091 1.556-1.091.208 0 .336.21.391.624.05.415-.235.986-.857 1.712-.623.727-4.101 6.903-10.43 18.525 2.802-4.255 6.356-8.458 10.663-12.609 4.305-4.15 7.991-6.229 11.053-6.229 3.061 0 5.06 1.301 5.994 3.892.414.521.623 1.091.623 1.714s-.105 1.428-.312 2.413c-.209.986-.416 1.79-.622 2.412-1.144 2.597-1.974 4.152-2.491 4.671-.312.521-.832.831-1.557.934a22.945 22.945 0 01-.312-.312c.206-1.139.311-2.177.311-3.111zm40.007-6.382c0 5.604-2.802 12.454-8.407 20.549-2.179 2.906-4.151 5.19-5.915 6.85 6.849 0 13.178-3.838 18.992-11.521.518-.519.778-.336.778.546s-.209 1.582-.622 2.101c-5.293 7.37-11.313 11.054-18.058 11.054-.935 0-1.869-.051-2.802-.156-5.814 5.396-12.352 8.095-19.615 8.095-4.257 0-6.382-1.814-6.382-5.448 0-5.915 2.853-12.817 8.561-20.706 3.633-5.188 8.042-9.287 13.233-12.298 5.5-3.425 10.171-5.138 14.011-5.138 4.148-.001 6.226 2.024 6.226 6.072zm-7.473.156c0-2.493-.934-3.737-2.802-3.737-.622 0-1.816.338-3.581 1.012-1.766.677-3.969 2.39-6.615 5.138-2.646 2.751-5.164 6.254-7.551 10.509-4.463 7.369-6.694 12.842-6.694 16.422 0 3.582.935 5.372 2.802 5.372 1.452 0 3.06-.49 4.826-1.48 1.764-.984 3.165-1.996 4.204-3.035 3.215-3.424 6.589-8.067 10.119-13.932 3.526-5.865 5.292-11.289 5.292-16.269z"/><path d="M277.962 69.024c2.593 0 3.892 1.661 3.892 4.981 0 5.502-4.515 14.375-13.544 26.62-7.681 10.691-18.37 22.211-32.069 34.561-2.7 4.981-4.724 10.328-6.071 16.033-.312 1.145-.468 2.233-.468 3.271 0 4.047 1.919 6.07 5.761 6.07.622 0 1.296-.05 2.023-.155 4.359-.829 11.311-7.16 20.86-18.992.207.21.312.648.312 1.323 0 .676-1.35 2.699-4.048 6.071-2.699 3.374-4.724 5.736-6.07 7.084-5.917 5.914-11.263 8.873-16.035 8.873-5.398 0-8.096-2.594-8.096-7.783 0-4.151 1.66-9.859 4.981-17.125l-6.539 7.16c-.727 1.039-1.089.936-1.089-.31 0-.831.389-1.737 1.168-2.726.778-.984 2.359-2.88 4.748-5.683 2.386-2.802 4.149-4.876 5.293-6.227 1.452-2.697 4.409-8.562 8.874-17.59 9.442-19.095 16.501-31.759 21.171-37.986 1.142-.414 3.399-1.763 6.773-4.047 3.372-2.28 6.096-3.423 8.173-3.423zm-12.298 30.044c7.368-12.037 11.054-20.495 11.054-25.374 0-1.246-.468-1.869-1.401-1.869-3.424 0-10.173 9.029-20.239 27.088-8.511 15.36-13.908 25.375-16.189 30.044 10.273-8.507 19.198-18.47 26.775-29.889z"/><path d="M270.877 161.729c-3.478 2.129-6.643 3.191-9.496 3.191-2.855 0-4.281-.986-4.281-2.959 0-1.868.518-3.942 1.556-6.226.726-1.659 4.877-10.482 12.455-26.465-5.502 5.916-10.483 11.831-14.945 17.746-.728 1.039-1.09.936-1.09-.31 0-.831.258-1.558.779-2.182 7.367-9.13 13.022-16.551 16.967-22.26 5.189-.726 8.302-1.557 9.341-2.491 1.036-.935 1.607-.985 1.712-.155 0 .415-.233.909-.7 1.479-.468.571-4.698 8.382-12.688 23.428-3.529 6.645-5.293 11.21-5.293 13.7 0 1.455.726 2.18 2.18 2.18 3.215 0 9.029-4.981 17.435-14.944l3.426-3.892c1.245 1.245-1.818 5.812-9.186 13.698-1.971 2.18-4.696 4.336-8.172 6.462zm16.891-56.744c-2.491 0-3.736-1.348-3.736-4.047 0-1.247.701-2.336 2.102-3.271 1.401-.934 2.646-1.4 3.736-1.4 1.089 0 1.946.442 2.568 1.323.623.883.935 1.583.935 2.101 0 1.868-.677 3.219-2.025 4.049-1.349.831-2.544 1.245-3.58 1.245z"/><path d="M332.445 124.132c0 1.351-.856 3.271-2.569 5.761s-4.281 7.188-7.707 14.088c-3.424 6.903-5.137 11.263-5.137 13.076 0 1.816.753 2.726 2.258 2.726 1.504 0 3.476-.959 5.917-2.881 2.436-1.92 4.617-3.969 6.538-6.148 1.918-2.181 4.487-5.239 7.705-9.185.207.31.312.777.312 1.4s-.677 1.817-2.024 3.581c-5.292 7.16-9.757 12.142-13.388 14.944-3.635 2.803-6.903 4.203-9.808 4.203-3.322 0-4.981-1.633-4.981-4.904 0-3.269 1.686-8.25 5.06-14.944 3.371-6.694 6.095-12.323 8.173-16.892 1.036-2.178.312-2.592-2.179-1.245-11.832 7.371-21.017 19.721-27.555 37.051-.624 0-1.843.336-3.659 1.012-1.817.674-2.88 1.012-3.191 1.012-.416 0-.389-.494.079-1.479.466-.986 1.347-3.035 2.646-6.149a611.843 611.843 0 004.747-11.832c3.632-9.13 6.072-15.15 7.317-18.058-5.502 5.916-10.483 11.831-14.945 17.746-.728 1.039-1.089.936-1.089-.31 0-.831.258-1.558.779-2.182 7.367-9.13 13.022-16.551 16.967-22.26 5.189-.726 8.198-1.453 9.03-2.18.829-.726 1.347-1.091 1.556-1.091.208 0 .335.21.39.624.05.415-.261 1.011-.935 1.79-.677.777-4.749 8.122-12.221 22.027a88.657 88.657 0 0117.436-17.279c4.254-3.113 7.729-4.671 10.43-4.671 2.697.003 4.048.886 4.048 2.649z"/><path d="M385.372 141.413c.208.21.312.622.312 1.245s-.727 1.923-2.179 3.893c-9.238 12.246-17.801 18.37-25.686 18.37-2.491 0-3.738-.986-3.738-2.959 0-3.631 2.024-8.613 6.072-14.945-3.635 3.842-7.784 7.76-12.455 11.754-4.67 3.996-9.029 5.994-13.077 5.994-1.867 0-2.801-1.141-2.801-3.426 0-.518.05-.879.156-1.089.725-5.915 3.113-12.142 7.16-18.68 8.096-13.077 16.501-19.615 25.22-19.615h17.902c.518 0 .778.209.778.622 0 .832-.466 1.245-1.401 1.245-1.455 0-3.269 1.689-5.449 5.06-2.179 3.374-5.059 8.562-8.639 15.568-3.582 7.006-5.372 11.416-5.372 13.232s.724 2.724 2.18 2.724c2.386 0 5.706-2.075 9.963-6.227 2.281-2.388 3.994-4.255 5.137-5.605a285.81 285.81 0 012.257-2.646c.364-.414 1.583-1.921 3.66-4.515zm-16.658-14.478c0-1.97-1.322-2.958-3.969-2.958-2.646 0-5.58 1.506-8.796 4.515-3.218 3.012-6.721 7.861-10.507 14.556-3.791 6.694-5.682 11.546-5.682 14.555 0 1.246.413 1.869 1.245 1.869 3.009 0 8.379-4.593 16.112-13.777 7.73-9.186 11.597-15.438 11.597-18.76z"/></g><g fill="#E182A8"><path d="M91.919 47.575c-4.06-4.039-8.393-7.716-12.653-11.53-4.04-3.617-7.927-8.554-5.8-14.257 1.859-4.984 6.938-9.239 11.46-11.756 5.37-2.989 11.996-3.442 16.38 1.498 4.407 4.966 3.399 12.25-1.622 16.386-2.541 2.094-6.233 2.966-9.333 1.698-3.593-1.469-4.942-6.296-1.67-8.892.263-.208-.074-.613-.351-.455-3.672 2.091-3.173 7.332.042 9.625 3.89 2.774 9.287 1.491 12.75-1.344 8.358-6.843 4.257-20.747-6.31-22.331-5.689-.853-11.113 2.131-15.388 5.589-4.34 3.51-8.81 8.412-8.555 14.389.235 5.524 4.534 9.874 8.261 13.49 5.154 5.002 10.408 9.882 15.363 15.086 5.41 5.681 12.033 12.166 10.301 20.769-1.703 8.452-8.778 14.175-14.67 19.842-.419.403.123 1.121.625.811 8.429-5.211 17.233-12.533 17.508-23.301.267-10.437-9.602-18.617-16.338-25.317z"/><path d="M117.996 19.158c-.889-2.08-2.381-3.841-4.553-4.783-.707-.307-1.515.517-.879 1.141a161.274 161.274 0 013.636 3.681c1.424 3.501-.203 8.146-2.387 11.353-3.179 4.665-7.89 8.127-10.438 13.251-4.099 8.244-3.215 18.801 3.544 25.342.219.212.583-.059.425-.328-2.804-4.804-4.286-10.486-3.821-16.062.529-6.338 3.891-10.945 8.055-15.494 3.186-3.479 7.465-8.006 7.427-13.079a13.866 13.866 0 00-.182-2.13c7.589 8.577 13.999 19.066 10.856 30.678-1.757 6.486-6.384 11.64-11.1 16.207-5.298 5.13-10.885 9.958-16.184 15.087-.61.59.3 1.481.926.925 6.14-5.456 12.337-11.028 18.078-16.905 4.563-4.671 8.746-10.123 9.96-16.693 2.334-12.626-5.215-23.25-13.363-32.191z"/><path d="M119.809 35.681c-.146-.18-.492.015-.4.232 3.49 8.279-4.169 15.744-7.689 22.663-3.6 7.074-6.025 14.804-6.998 22.69-.024.19.268.211.321.043 2.896-9.073 6.491-17.895 11.365-26.104 3.271-5.508 8.32-13.436 3.401-19.524z"/><path d="M101.188 68.677c-2.71-.25-5.513.534-8.173.934-3.616.544-7.266.945-10.926.959-6.342.023-12.904-1.192-18.096-5.035-4.222-3.126-8.714-8.926-8.103-14.57 5.759 3.733 14.956 2.57 21.207 2.292 8.701-.389 18.986.102 23.949 8.483.025.042.097.015.081-.034-2.47-7.198-10.214-10.317-17.26-10.851-5.047-.383-10.109.292-15.159.212-2.24-.036-4.488-.192-6.684-.655-2.298-.484-4.327-1.551-6.554-2.213-.59-.175-1.34.321-1.284.978.401 4.671 1.177 8.588 4.104 12.417 2.887 3.778 6.967 6.645 11.443 8.223 5.637 1.987 11.76 2.134 17.655 1.6 3.961-.359 20.44-4.806 17.97 3.651-.129.439.505.703.736.31 1.997-3.394-1.752-6.409-4.906-6.701z"/><path d="M106.395 67.871c-2.28-7.201-10.719-6.349-16.696-5.082-4.499.953-8.893 1.423-13.421.371-4.339-1.009-7.57-3.272-11.264-5.566-.129-.08-.239.094-.152.198 4.02 4.866 11.515 7.215 17.59 7.609 4.081.264 8.014-.82 12.062-1.103 3.832-.269 8.49.677 10.984 3.951.309.406 1.08.2.897-.378zM80.396 22.494c-2.632-1.186-5.719.134-6.837 2.735-1.535 3.57.584 7.236 2.734 10.001.108.139.318-.039.237-.183-1.705-3.035-4.414-8.013-1.027-10.971 2.242-1.96 5.84-.954 6.681 1.916.92 3.14-2.274 6.158-5.121 3.677-.279-.244-.689.059-.514.396 1.282 2.469 4.6 1.866 5.994-.194 1.685-2.489.568-6.156-2.147-7.377zM92.771 9.692c-2.547-1.425-5.702-.858-8.344-.026-.158.05-.089.265.067.243 3.201-.448 8.295-1.524 9.888 2.438.734 1.828-.307 4.199-2.343 4.616-1.884.386-3.002-.937-4.032-2.229-.269-.337-.711.043-.652.38.77 4.372 7.43 3.293 8.055-.69.316-2.007-.956-3.791-2.639-4.732zm-17.194-.191c-2.435-2.053-6.539-2.799-9.249-.859-2.004 1.435-3.112 4.481-1.617 6.654 1.349 1.958 4.408 2.408 5.924.466.201-.256-.098-.556-.355-.355-1.621 1.263-3.969.799-4.922-.979-1.047-1.951.18-4.371 2.016-5.361 1.866-1.006 4.362-.757 6.22.152 2.239 1.096 4.329 3.838 1.919 6.003-.152.136.042.374.213.276 2.433-1.374 1.7-4.437-.149-5.997z"/></g><path fill="none" d="M84.991 193.021H341.01v50.722H84.991z"/><text transform="translate(84.99 219.553)" fill="#1D1D1B" font-family="'Lato-Regular'" font-size="36" letter-spacing="7">SPA SALON</text></svg>