<svg xmlns="http://www.w3.org/2000/svg" viewBox="0 0 100 100"><defs><style>.cls-1{fill:#e082a8;}</style></defs><g id="ELEMENTS"><path class="cls-1" d="M70,27.25a4.42,4.42,0,1,0,4.42,4.42A4.41,4.41,0,0,0,70,27.25Z"/><path class="cls-1" d="M50.31,32.92A18.56,18.56,0,1,0,68.87,51.48,18.58,18.58,0,0,0,50.31,32.92Zm0,30.45A11.89,11.89,0,1,1,62.2,51.48,11.9,11.9,0,0,1,50.31,63.37Z"/><path class="cls-1" d="M65.05,89.17H35A22.67,22.67,0,0,1,12.31,66.53V36.43A22.67,22.67,0,0,1,35,13.79h30.1A22.67,22.67,0,0,1,87.69,36.43v30.1A22.67,22.67,0,0,1,65.05,89.17ZM35,20.89A15.56,15.56,0,0,0,19.4,36.43v30.1A15.57,15.57,0,0,0,35,82.08h30.1A15.57,15.57,0,0,0,80.6,66.53V36.43A15.56,15.56,0,0,0,65.05,20.89Z"/></g></svg>