<svg xmlns="http://www.w3.org/2000/svg" viewBox="0 0 100 100"><defs><style>.cls-1{fill:#e082a8;fill-rule:evenodd;}</style></defs><g id="ELEMENTS"><path class="cls-1" d="M45.63,62c-.06.19-.11.36-.15.53C43,72.42,42.67,74.63,40.07,79.23a52.41,52.41,0,0,1-4.19,6.25c-.17.22-.34.51-.68.44s-.42-.42-.46-.73a54,54,0,0,1-.54-9.07c.13-4,.62-5.33,5.73-26.81a1.5,1.5,0,0,0-.12-.89,15.11,15.11,0,0,1-.4-10c2.31-7.33,10.62-7.89,12.07-1.84.9,3.73-1.47,8.63-3.29,15.86-1.5,6,5.52,10.21,11.53,5.85,5.53-4,7.68-13.64,7.27-20.46-.8-13.61-15.72-16.55-25.18-12.17-10.85,5-13.32,18.47-8.42,24.61.62.79,1.1,1.26.89,2.06-.31,1.23-.59,2.47-.93,3.69a1.31,1.31,0,0,1-1.94.87,11.16,11.16,0,0,1-4.53-3.39c-4.16-5.16-5.35-15.35.15-24,6.1-9.56,17.43-13.43,27.78-12.25C67.17,18.64,75,27.09,76.45,36.67c.67,4.36.19,15.13-5.94,22.74-7.05,8.74-18.48,9.32-23.75,4C46.36,63,46,62.47,45.63,62Z"/></g></svg>