<?xml version="1.0" encoding="utf-8"?>
<!-- Generator: Adobe Illustrator 16.0.0, SVG Export Plug-In . SVG Version: 6.00 Build 0)  -->
<!DOCTYPE svg PUBLIC "-//W3C//DTD SVG 1.1//EN" "http://www.w3.org/Graphics/SVG/1.1/DTD/svg11.dtd">
<svg version="1.1" id="Capa_1" xmlns="http://www.w3.org/2000/svg" xmlns:xlink="http://www.w3.org/1999/xlink" x="0px" y="0px"
	 width="395px" height="229px" viewBox="0 0 395 229" enable-background="new 0 0 395 229" xml:space="preserve">
<g>
	<path fill="#E182A8" d="M87.265,104.673c1.764-2.904,2.646-6.174,2.646-9.808c0-3.632-0.571-6.485-1.713-8.562
		c-1.973-3.32-5.814-4.981-11.52-4.981c-10.586,0-20.914,4.256-30.979,12.765c-7.371,6.538-13.415,14.349-18.137,23.43
		c-4.723,9.082-7.083,17.178-7.083,24.284c0,7.11,1.635,12.454,4.904,16.035c3.27,3.58,7.445,5.736,12.532,6.46
		c2.697,0.414,5.344,0.623,7.939,0.623c7.885,0,15.358-1.4,22.417-4.204c11.311-4.359,20.393-10.793,27.243-19.304
		c1.035-1.245,1.556-1.245,1.556,0c0,0.728-0.416,1.661-1.245,2.803c-6.538,8.718-15.309,15.36-26.308,19.925
		c-7.784,3.215-16.035,4.826-24.752,4.826c-14.116,0-23.872-3.736-29.268-11.208c-2.802-3.839-4.203-8.614-4.203-14.322
		c0-9.754,2.699-19.276,8.096-28.565c5.396-9.288,12.35-17.149,20.86-23.586c10.897-8.197,22.674-12.298,35.338-12.298
		c5.706,0,10.664,1.012,14.867,3.036c4.204,2.023,6.306,4.698,6.306,8.017c0,1.455-0.962,3.764-2.881,6.929
		c-1.922,3.165-3.139,5.474-3.657,6.928c-0.21,0.727-0.988,1.143-2.336,1.245C87.471,105.039,87.265,104.882,87.265,104.673z"/>
	<path fill="#E182A8" d="M141.438,141.413c0.208,0.21,0.312,0.622,0.312,1.245s-0.728,1.923-2.179,3.893
		c-9.238,12.246-17.801,18.37-25.686,18.37c-2.491,0-3.737-0.986-3.737-2.959c0-3.631,2.024-8.613,6.072-14.945
		c-3.635,3.842-7.784,7.76-12.455,11.754c-4.669,3.996-9.029,5.994-13.077,5.994c-1.867,0-2.801-1.141-2.801-3.426
		c0-0.518,0.05-0.879,0.156-1.089c0.725-5.915,3.112-12.142,7.16-18.68c8.095-13.077,16.501-19.615,25.22-19.615h17.902
		c0.518,0,0.778,0.209,0.778,0.622c0,0.832-0.466,1.245-1.401,1.245c-1.454,0-3.269,1.689-5.449,5.06
		c-2.179,3.374-5.059,8.562-8.639,15.568c-3.582,7.006-5.372,11.416-5.372,13.232s0.724,2.724,2.18,2.724
		c2.385,0,5.706-2.075,9.962-6.227c2.282-2.388,3.995-4.255,5.137-5.605c1.141-1.347,1.893-2.229,2.258-2.646
		C138.143,145.514,139.361,144.007,141.438,141.413z M124.781,126.935c0-1.97-1.322-2.958-3.969-2.958
		c-2.646,0-5.581,1.506-8.796,4.515c-3.218,3.012-6.721,7.861-10.508,14.556c-3.791,6.694-5.682,11.546-5.682,14.555
		c0,1.246,0.413,1.869,1.245,1.869c3.009,0,8.379-4.593,16.112-13.777C120.913,136.509,124.781,130.257,124.781,126.935z"/>
	<path fill="#E182A8" d="M178.955,133.629c0-4.772-1.479-7.162-4.437-7.162c-2.958,0-7.162,3.141-12.61,9.419
		c-5.448,6.28-9.574,12.998-12.376,20.159l-3.269,8.718c-0.623,0-1.869,0.312-3.736,0.934c-1.869,0.625-2.855,0.934-2.958,0.934
		c-0.521,0-0.544-0.465-0.077-1.4c0.467-0.934,1.347-2.957,2.646-6.071c1.296-3.114,2.88-7.057,4.747-11.832
		c3.632-9.13,6.072-15.15,7.318-18.058c-5.502,5.916-10.484,11.831-14.946,17.746c-0.727,1.039-1.089,0.936-1.089-0.31
		c0-0.831,0.258-1.558,0.779-2.182c7.367-9.13,13.022-16.551,16.968-22.26c5.189-0.726,8.198-1.453,9.03-2.18
		c0.829-0.726,1.347-1.091,1.556-1.091c0.208,0,0.336,0.21,0.391,0.624c0.05,0.415-0.235,0.986-0.857,1.712
		c-0.623,0.727-4.101,6.903-10.43,18.525c2.802-4.255,6.356-8.458,10.663-12.609c4.305-4.15,7.991-6.229,11.053-6.229
		c3.061,0,5.06,1.301,5.994,3.892c0.414,0.521,0.623,1.091,0.623,1.714s-0.105,1.428-0.312,2.413
		c-0.209,0.986-0.416,1.79-0.622,2.412c-1.144,2.597-1.974,4.152-2.491,4.671c-0.312,0.521-0.832,0.831-1.557,0.934
		c-0.105-0.103-0.208-0.206-0.312-0.312C178.85,135.601,178.955,134.563,178.955,133.629z"/>
	<path fill="#E182A8" d="M218.962,127.247c0,5.604-2.802,12.454-8.407,20.549c-2.179,2.906-4.151,5.19-5.915,6.85
		c6.849,0,13.178-3.838,18.992-11.521c0.518-0.519,0.778-0.336,0.778,0.546s-0.209,1.582-0.622,2.101
		c-5.293,7.37-11.313,11.054-18.058,11.054c-0.935,0-1.869-0.051-2.802-0.156c-5.814,5.396-12.352,8.095-19.615,8.095
		c-4.257,0-6.382-1.814-6.382-5.448c0-5.915,2.853-12.817,8.561-20.706c3.633-5.188,8.042-9.287,13.233-12.298
		c5.5-3.425,10.171-5.138,14.011-5.138C216.884,121.174,218.962,123.199,218.962,127.247z M211.489,127.403
		c0-2.493-0.934-3.737-2.802-3.737c-0.622,0-1.816,0.338-3.581,1.012c-1.766,0.677-3.969,2.39-6.615,5.138
		c-2.646,2.751-5.164,6.254-7.551,10.509c-4.463,7.369-6.694,12.842-6.694,16.422c0,3.582,0.935,5.372,2.802,5.372
		c1.452,0,3.06-0.49,4.826-1.48c1.764-0.984,3.165-1.996,4.204-3.035c3.215-3.424,6.589-8.067,10.119-13.932
		C209.723,137.807,211.489,132.383,211.489,127.403z"/>
	<path fill="#E182A8" d="M277.962,69.024c2.593,0,3.892,1.661,3.892,4.981c0,5.502-4.515,14.375-13.544,26.62
		c-7.681,10.691-18.37,22.211-32.069,34.561c-2.7,4.981-4.724,10.328-6.071,16.033c-0.312,1.145-0.468,2.233-0.468,3.271
		c0,4.047,1.919,6.07,5.761,6.07c0.622,0,1.296-0.05,2.023-0.155c4.359-0.829,11.311-7.16,20.86-18.992
		c0.207,0.21,0.312,0.648,0.312,1.323c0,0.676-1.35,2.699-4.048,6.071c-2.699,3.374-4.724,5.736-6.07,7.084
		c-5.917,5.914-11.263,8.873-16.035,8.873c-5.398,0-8.096-2.594-8.096-7.783c0-4.151,1.66-9.859,4.981-17.125l-6.539,7.16
		c-0.727,1.039-1.089,0.936-1.089-0.31c0-0.831,0.389-1.737,1.168-2.726c0.778-0.984,2.359-2.88,4.748-5.683
		c2.386-2.802,4.149-4.876,5.293-6.227c1.452-2.697,4.409-8.562,8.874-17.59c9.442-19.095,16.501-31.759,21.171-37.986
		c1.142-0.414,3.399-1.763,6.773-4.047C273.161,70.167,275.885,69.024,277.962,69.024z M265.664,99.068
		c7.368-12.037,11.054-20.495,11.054-25.374c0-1.246-0.468-1.869-1.401-1.869c-3.424,0-10.173,9.029-20.239,27.088
		c-8.511,15.36-13.908,25.375-16.189,30.044C249.162,120.45,258.087,110.487,265.664,99.068z"/>
	<path fill="#E182A8" d="M270.877,161.729c-3.478,2.129-6.643,3.191-9.496,3.191c-2.855,0-4.281-0.986-4.281-2.959
		c0-1.868,0.518-3.942,1.556-6.226c0.726-1.659,4.877-10.482,12.455-26.465c-5.502,5.916-10.483,11.831-14.945,17.746
		c-0.728,1.039-1.09,0.936-1.09-0.31c0-0.831,0.258-1.558,0.779-2.182c7.367-9.13,13.022-16.551,16.967-22.26
		c5.189-0.726,8.302-1.557,9.341-2.491c1.036-0.935,1.607-0.985,1.712-0.155c0,0.415-0.233,0.909-0.7,1.479
		c-0.468,0.571-4.698,8.382-12.688,23.428c-3.529,6.645-5.293,11.21-5.293,13.7c0,1.455,0.726,2.18,2.18,2.18
		c3.215,0,9.029-4.981,17.435-14.944l3.426-3.892c1.245,1.245-1.818,5.812-9.186,13.698
		C277.078,157.447,274.353,159.603,270.877,161.729z M287.768,104.985c-2.491,0-3.736-1.348-3.736-4.047
		c0-1.247,0.701-2.336,2.102-3.271c1.401-0.934,2.646-1.4,3.736-1.4c1.089,0,1.946,0.442,2.568,1.323
		c0.623,0.883,0.935,1.583,0.935,2.101c0,1.868-0.677,3.219-2.025,4.049C289.999,104.571,288.804,104.985,287.768,104.985z"/>
	<path fill="#E182A8" d="M332.445,124.132c0,1.351-0.856,3.271-2.569,5.761s-4.281,7.188-7.707,14.088
		c-3.424,6.903-5.137,11.263-5.137,13.076c0,1.816,0.753,2.726,2.258,2.726c1.504,0,3.476-0.959,5.917-2.881
		c2.436-1.92,4.617-3.969,6.538-6.148c1.918-2.181,4.487-5.239,7.705-9.185c0.207,0.31,0.312,0.777,0.312,1.4
		s-0.677,1.817-2.024,3.581c-5.292,7.16-9.757,12.142-13.388,14.944c-3.635,2.803-6.903,4.203-9.808,4.203
		c-3.322,0-4.981-1.633-4.981-4.904c0-3.269,1.686-8.25,5.06-14.944c3.371-6.694,6.095-12.323,8.173-16.892
		c1.036-2.178,0.312-2.592-2.179-1.245c-11.832,7.371-21.017,19.721-27.555,37.051c-0.624,0-1.843,0.336-3.659,1.012
		c-1.817,0.674-2.88,1.012-3.191,1.012c-0.416,0-0.389-0.494,0.079-1.479c0.466-0.986,1.347-3.035,2.646-6.149
		c1.296-3.114,2.879-7.057,4.747-11.832c3.632-9.13,6.072-15.15,7.317-18.058c-5.502,5.916-10.483,11.831-14.945,17.746
		c-0.728,1.039-1.089,0.936-1.089-0.31c0-0.831,0.258-1.558,0.779-2.182c7.367-9.13,13.022-16.551,16.967-22.26
		c5.189-0.726,8.198-1.453,9.03-2.18c0.829-0.726,1.347-1.091,1.556-1.091c0.208,0,0.335,0.21,0.39,0.624
		c0.05,0.415-0.261,1.011-0.935,1.79c-0.677,0.777-4.749,8.122-12.221,22.027c4.981-6.538,10.792-12.298,17.436-17.279
		c4.254-3.113,7.729-4.671,10.43-4.671C331.094,121.486,332.445,122.369,332.445,124.132z"/>
	<path fill="#E182A8" d="M385.372,141.413c0.208,0.21,0.312,0.622,0.312,1.245s-0.727,1.923-2.179,3.893
		c-9.238,12.246-17.801,18.37-25.686,18.37c-2.491,0-3.738-0.986-3.738-2.959c0-3.631,2.024-8.613,6.072-14.945
		c-3.635,3.842-7.784,7.76-12.455,11.754c-4.67,3.996-9.029,5.994-13.077,5.994c-1.867,0-2.801-1.141-2.801-3.426
		c0-0.518,0.05-0.879,0.156-1.089c0.725-5.915,3.113-12.142,7.16-18.68c8.096-13.077,16.501-19.615,25.22-19.615h17.902
		c0.518,0,0.778,0.209,0.778,0.622c0,0.832-0.466,1.245-1.401,1.245c-1.455,0-3.269,1.689-5.449,5.06
		c-2.179,3.374-5.059,8.562-8.639,15.568c-3.582,7.006-5.372,11.416-5.372,13.232s0.724,2.724,2.18,2.724
		c2.386,0,5.706-2.075,9.963-6.227c2.281-2.388,3.994-4.255,5.137-5.605c1.14-1.347,1.893-2.229,2.257-2.646
		C382.076,145.514,383.295,144.007,385.372,141.413z M368.714,126.935c0-1.97-1.322-2.958-3.969-2.958
		c-2.646,0-5.58,1.506-8.796,4.515c-3.218,3.012-6.721,7.861-10.507,14.556c-3.791,6.694-5.682,11.546-5.682,14.555
		c0,1.246,0.413,1.869,1.245,1.869c3.009,0,8.379-4.593,16.112-13.777C364.847,136.509,368.714,130.257,368.714,126.935z"/>
</g>
<g>
	<path fill="#E182A8" d="M91.919,47.575c-4.06-4.039-8.393-7.716-12.653-11.53c-4.04-3.617-7.927-8.554-5.8-14.257
		c1.859-4.984,6.938-9.239,11.46-11.756c5.37-2.989,11.996-3.442,16.38,1.498c4.407,4.966,3.399,12.25-1.622,16.386
		c-2.541,2.094-6.233,2.966-9.333,1.698c-3.593-1.469-4.942-6.296-1.67-8.892c0.263-0.208-0.074-0.613-0.351-0.455
		c-3.672,2.091-3.173,7.332,0.042,9.625c3.89,2.774,9.287,1.491,12.75-1.344c8.358-6.843,4.257-20.747-6.31-22.331
		c-5.689-0.853-11.113,2.131-15.388,5.589c-4.34,3.51-8.81,8.412-8.555,14.389c0.235,5.524,4.534,9.874,8.261,13.49
		c5.154,5.002,10.408,9.882,15.363,15.086c5.41,5.681,12.033,12.166,10.301,20.769c-1.703,8.452-8.778,14.175-14.67,19.842
		c-0.419,0.403,0.123,1.121,0.625,0.811c8.429-5.211,17.233-12.533,17.508-23.301C108.524,62.455,98.655,54.275,91.919,47.575z"/>
	<path fill="#E182A8" d="M117.996,19.158c-0.889-2.08-2.381-3.841-4.553-4.783c-0.707-0.307-1.515,0.517-0.879,1.141
		c1.196,1.176,2.418,2.404,3.636,3.681c1.424,3.501-0.203,8.146-2.387,11.353c-3.179,4.665-7.89,8.127-10.438,13.251
		c-4.099,8.244-3.215,18.801,3.544,25.342c0.219,0.212,0.583-0.059,0.425-0.328c-2.804-4.804-4.286-10.486-3.821-16.062
		c0.529-6.338,3.891-10.945,8.055-15.494c3.186-3.479,7.465-8.006,7.427-13.079c-0.005-0.71-0.067-1.425-0.182-2.13
		c7.589,8.577,13.999,19.066,10.856,30.678c-1.757,6.486-6.384,11.64-11.1,16.207c-5.298,5.13-10.885,9.958-16.184,15.087
		c-0.61,0.59,0.3,1.481,0.926,0.925c6.14-5.456,12.337-11.028,18.078-16.905c4.563-4.671,8.746-10.123,9.96-16.693
		C133.693,38.723,126.144,28.099,117.996,19.158z"/>
	<path fill="#E182A8" d="M119.809,35.681c-0.146-0.18-0.492,0.015-0.4,0.232c3.49,8.279-4.169,15.744-7.689,22.663
		c-3.6,7.074-6.025,14.804-6.998,22.69c-0.024,0.19,0.268,0.211,0.321,0.043c2.896-9.073,6.491-17.895,11.365-26.104
		C119.679,49.697,124.728,41.769,119.809,35.681z"/>
	<path fill="#E182A8" d="M101.188,68.677c-2.71-0.25-5.513,0.534-8.173,0.934c-3.616,0.544-7.266,0.945-10.926,0.959
		c-6.342,0.023-12.904-1.192-18.096-5.035c-4.222-3.126-8.714-8.926-8.103-14.57c5.759,3.733,14.956,2.57,21.207,2.292
		c8.701-0.389,18.986,0.102,23.949,8.483c0.025,0.042,0.097,0.015,0.081-0.034c-2.47-7.198-10.214-10.317-17.26-10.851
		c-5.047-0.383-10.109,0.292-15.159,0.212c-2.24-0.036-4.488-0.192-6.684-0.655c-2.298-0.484-4.327-1.551-6.554-2.213
		c-0.59-0.175-1.34,0.321-1.284,0.978c0.401,4.671,1.177,8.588,4.104,12.417c2.887,3.778,6.967,6.645,11.443,8.223
		c5.637,1.987,11.76,2.134,17.655,1.6c3.961-0.359,20.44-4.806,17.97,3.651c-0.129,0.439,0.505,0.703,0.736,0.31
		C108.091,71.984,104.342,68.969,101.188,68.677z"/>
	<path fill="#E182A8" d="M106.395,67.871c-2.28-7.201-10.719-6.349-16.696-5.082c-4.499,0.953-8.893,1.423-13.421,0.371
		c-4.339-1.009-7.57-3.272-11.264-5.566c-0.129-0.08-0.239,0.094-0.152,0.198c4.02,4.866,11.515,7.215,17.59,7.609
		c4.081,0.264,8.014-0.82,12.062-1.103c3.832-0.269,8.49,0.677,10.984,3.951C105.807,68.655,106.578,68.449,106.395,67.871z"/>
	<path fill="#E182A8" d="M80.396,22.494c-2.632-1.186-5.719,0.134-6.837,2.735c-1.535,3.57,0.584,7.236,2.734,10.001
		c0.108,0.139,0.318-0.039,0.237-0.183c-1.705-3.035-4.414-8.013-1.027-10.971c2.242-1.96,5.84-0.954,6.681,1.916
		c0.92,3.14-2.274,6.158-5.121,3.677c-0.279-0.244-0.689,0.059-0.514,0.396c1.282,2.469,4.6,1.866,5.994-0.194
		C84.228,27.382,83.111,23.715,80.396,22.494z"/>
	<path fill="#E182A8" d="M92.771,9.692c-2.547-1.425-5.702-0.858-8.344-0.026c-0.158,0.05-0.089,0.265,0.067,0.243
		c3.201-0.448,8.295-1.524,9.888,2.438c0.734,1.828-0.307,4.199-2.343,4.616c-1.884,0.386-3.002-0.937-4.032-2.229
		c-0.269-0.337-0.711,0.043-0.652,0.38c0.77,4.372,7.43,3.293,8.055-0.69C95.726,12.417,94.454,10.633,92.771,9.692z"/>
	<path fill="#E182A8" d="M75.577,9.501c-2.435-2.053-6.539-2.799-9.249-0.859c-2.004,1.435-3.112,4.481-1.617,6.654
		c1.349,1.958,4.408,2.408,5.924,0.466c0.201-0.256-0.098-0.556-0.355-0.355c-1.621,1.263-3.969,0.799-4.922-0.979
		c-1.047-1.951,0.18-4.371,2.016-5.361c1.866-1.006,4.362-0.757,6.22,0.152c2.239,1.096,4.329,3.838,1.919,6.003
		c-0.152,0.136,0.042,0.374,0.213,0.276C78.159,14.124,77.426,11.061,75.577,9.501z"/>
</g>
<rect x="84.991" y="193.021" fill="none" width="256.019" height="50.722"/>
<text transform="matrix(1 0 0 1 84.9907 219.5527)" fill="#1D1D1B" font-family="'Lato-Regular'" font-size="36" letter-spacing="7">SPA SALON</text>
</svg>
